<svg xmlns="http://www.w3.org/2000/svg" viewBox="0 0 128 128" role="img" aria-labelledby="title desc">
  <title id="title">Cozy Rooms</title>
  <desc id="desc">Rounded square mark with CR monogram.</desc>
  <defs>
    <linearGradient id="bg" x1="0%" y1="0%" x2="100%" y2="100%">
      <stop offset="0%" stop-color="#18342f" />
      <stop offset="100%" stop-color="#bc6a4f" />
    </linearGradient>
  </defs>
  <rect width="128" height="128" rx="32" fill="url(#bg)" />
  <path d="M34 76c0-18 10-28 28-28 9 0 15 2 21 7l-8 10c-3-3-7-5-13-5-9 0-15 6-15 16s6 16 15 16c6 0 10-2 14-6l8 9c-6 7-14 10-23 10-18 0-27-9-27-29Zm55-27h12v56H89z" fill="#fff6ea"/>
</svg>
